<?xml version="1.0" standalone="no"?>
<!DOCTYPE svg PUBLIC "-//W3C//DTD SVG 1.1//EN" "http://www.w3.org/Graphics/SVG/1.1/DTD/svg11.dtd" >
<svg xmlns="http://www.w3.org/2000/svg">
<metadata>Generated by IcoMoon</metadata>
<defs>
<font id="myFont" horiz-adv-x="1024">
<font-face units-per-em="1024" ascent="960" descent="-64" />
<missing-glyph horiz-adv-x="1024" />
<glyph unicode="&#x20;" horiz-adv-x="512" d="" />
<glyph unicode="&#xe900;" glyph-name="add" d="M511.491 893.708c-219.14 0-396.783-177.646-396.783-396.767 0-219.132 177.643-396.767 396.783-396.767 219.13 0 396.783 177.636 396.783 396.767 0 219.121-177.653 396.767-396.783 396.767zM510.979 155.423c-188.624 0-341.532 152.902-341.532 341.518 0 188.606 152.909 341.508 341.532 341.508 188.614 0 341.522-152.902 341.522-341.508 0-188.616-152.909-341.518-341.522-341.518zM275.026 546.822h472.763v-59.86h-472.763v59.86zM482.068 733.313h59.864v-472.744h-59.864v472.744z" />
<glyph unicode="&#xe901;" glyph-name="back" d="M16.136 559.49c17.941 13.784 43.488 10.23 57.091-7.937l42.405-56.587c10.557 105.069 56.056 202.473 130.832 278.183 177.358 179.544 465.911 179.544 643.244 0 177.358-179.536 177.358-471.632 0-651.145-88.667-89.759-205.138-134.652-321.608-134.652-116.468 0-232.933 44.882-321.606 134.652-15.911 16.096-15.911 42.215 0 58.315 15.901 16.106 41.702 16.106 57.61 0 145.575-147.364 382.434-147.364 528.009 0 145.551 147.364 145.551 387.134 0 534.495-145.575 147.366-382.434 147.366-528.009 0-62.348-63.112-99.872-144.641-107.754-232.444l52.192 54.524c15.656 16.345 41.433 16.758 57.612 0.89 16.149-15.845 16.55-41.975 0.877-58.315l-125.202-130.738c-7.678-8.062-18.261-12.533-29.245-12.533-0.824 0-1.631 0.003-2.465 0.008-11.876 0.734-22.804 6.653-29.989 16.226l-111.821 149.19c-13.6 18.14-10.104 44.010 7.855 57.776l-0.029 0.092z" />
<glyph unicode="&#xe902;" glyph-name="comment" d="M779.008 841.808h-509.41c-65.779 0-119.085-58.322-119.085-124.77v-329.955c0-66.447 52.063-110.914 117.842-110.914h47.137v-141.41l164.978 141.41h306.388c65.756 0 117.84 44.467 117.84 110.914v329.955c-0.001 66.447-59.934 124.77-125.69 124.77zM857.561 387.084c0-44.053-35.514-63.778-70.704-63.778h-323.834l-100.397-86.056v86.056h-94.273c-35.193 0-70.706 19.724-70.706 63.778v329.955c0 41.36 33.627 77.633 71.95 77.633h509.411c40.368 0 78.553-37.723 78.553-77.633v-329.955zM291.921 558.989c0-26.033 21.104-47.137 47.137-47.137s47.137 21.104 47.137 47.137c0 26.033-21.104 47.137-47.137 47.137s-47.137-21.104-47.137-47.137zM480.467 558.989c0-26.033 21.104-47.137 47.137-47.137s47.137 21.104 47.137 47.137c0 26.033-21.104 47.137-47.137 47.137s-47.137-21.104-47.137-47.137zM669.014 558.989c0-26.033 21.104-47.137 47.137-47.137s47.137 21.104 47.137 47.137c0 26.033-21.104 47.137-47.137 47.137s-47.137-21.104-47.137-47.137z" />
<glyph unicode="&#xe903;" glyph-name="del" d="M344.459 168.618c15.423 0 27.902 12.48 27.902 27.902v306.921c0 15.422-12.479 27.902-27.902 27.902s-27.902-12.48-27.902-27.902v-306.922c0-15.423 12.48-27.901 27.902-27.901zM511.872 168.618c15.423 0 27.902 12.48 27.902 27.902v306.921c0 15.422-12.48 27.902-27.902 27.902s-27.902-12.48-27.902-27.902v-306.922c-0.001-15.423 12.479-27.901 27.902-27.901zM679.284 168.618c15.424 0 27.902 12.48 27.902 27.902v306.921c0 15.422-12.48 27.902-27.902 27.902s-27.902-12.48-27.902-27.902v-306.922c0-15.423 12.479-27.901 27.902-27.901zM818.794 810.364h-115.559c-12.48 48.011-55.804 83.706-107.657 83.706h-167.412c-51.853 0-95.178-35.695-107.657-83.706h-115.558c-61.553 0-111.608-50.083-111.608-111.608v-27.903h27.902v-27.902h55.804v-530.138c0-61.526 50.055-111.608 111.608-111.608h446.432c61.555 0 111.608 50.082 111.608 111.608v530.139h55.804v27.902h27.902v27.903c0 61.525-50.053 111.607-111.608 111.607zM428.165 838.266h167.412c20.544 0 38.365-11.308 48.039-27.902h-263.488c9.674 16.594 27.493 27.902 48.038 27.902zM790.891 112.814c0-30.79-25.040-55.804-55.804-55.804h-446.432c-30.763 0-59.673 25.014-59.673 55.804l3.869 530.138h558.040v-530.138zM149.145 698.756c0 30.79 25.042 55.804 55.804 55.804h613.845c30.765 0 55.804-25.014 55.804-55.804h-725.453z" />
<glyph unicode="&#xe904;" glyph-name="down-arrow" d="M512 294.4l-286.72 287.805 19.313 19.395 267.407-268.39 267.407 268.39 19.313-19.395-286.72-287.805z" />
<glyph unicode="&#xe905;" glyph-name="edit" d="M378.424 437.275c-0.462-0.587-0.924-1.202-1.131-1.943l-35.69-130.091c-2.083-7.573 0.050-15.735 5.689-21.487 4.219-4.099 9.777-6.348 15.696-6.348 1.955 0 3.914 0.233 5.843 0.742l129.923 35.23c0.208 0 0.309-0.182 0.468-0.182 1.492 0 2.958 0.539 4.065 1.665l347.42 345.345c10.319 10.272 15.979 24.267 15.979 39.491 0 17.253-7.361 34.497-20.25 47.276l-32.811 32.672c-12.867 12.813-30.238 20.144-47.584 20.144-15.31 0-29.386-5.627-39.73-15.873l-347.37-345.441c-0.359-0.328-0.259-0.817-0.517-1.2zM816.71 694.026l-34.508-34.281-55.942 56.5 34.018 33.822c5.376 5.373 15.797 4.589 21.975-1.572l32.833-32.672c3.426-3.4 5.38-7.928 5.38-12.404-0.019-3.672-1.333-7.001-3.755-9.392zM440.21 431.85l250.693 249.246 55.97-56.537-250.226-248.756-56.436 56.047zM394.536 330.797l18.115 66.107 48.325-48.047-66.44-18.061zM838.715 557.172c-13.152 0-23.933-10.632-23.985-23.883v-321.977c0-16.884-13.792-30.596-30.801-30.596h-547.856c-16.985 0-30.832 13.712-30.832 30.596v525.527c0 16.899 13.847 30.627 30.832 30.627h352.851c13.223 0 23.955 10.676 23.955 23.829 0 13.125-10.731 23.818-23.955 23.818h-356.506c-41.405 0-75.104-33.477-75.104-74.665v-532.77c0-41.189 33.699-74.652 75.104-74.652h555.135c41.436 0 75.115 33.464 75.115 74.652v325.763c-0.050 13.1-10.806 23.732-23.953 23.732z" />
<glyph unicode="&#xe906;" glyph-name="forum" d="M860.8 524.8c0 224-192 403.2-432 403.2-236.8 0-428.8-182.4-428.8-403.2 0-73.6 22.4-144 57.6-201.6l-41.6-140.8c-9.6-35.2 9.6-51.2 41.6-41.6l134.4 44.8c67.2-41.6 147.2-64 233.6-64 243.2-3.2 435.2 179.2 435.2 403.2zM646.4 579.2c28.8 0 54.4-25.6 54.4-54.4s-25.6-54.4-54.4-54.4-54.4 25.6-54.4 54.4 25.6 54.4 54.4 54.4zM214.4 470.4c-28.8 0-54.4 25.6-54.4 54.4s25.6 54.4 54.4 54.4c28.8 0 54.4-25.6 54.4-54.4s-22.4-54.4-54.4-54.4zM377.6 524.8c0 28.8 25.6 54.4 54.4 54.4s54.4-25.6 54.4-54.4-25.6-54.4-54.4-54.4-54.4 22.4-54.4 54.4zM966.4 160c35.2 60.8 57.6 128 57.6 201.6 0 112-48 211.2-124.8 284.8 12.8-38.4 19.2-80 19.2-124.8 0-12.8 0-22.4 0-35.2 19.2-38.4 28.8-83.2 28.8-128 0-57.6-16-112-44.8-160l-19.2-28.8 9.6-35.2 16-54.4-51.2 16-35.2 12.8-32-19.2c-57.6-35.2-124.8-54.4-192-54.4-51.2 0-99.2 9.6-140.8 28.8-6.4 0-12.8 0-19.2 0-54.4 0-108.8 9.6-156.8 25.6 80-80 192-131.2 320-131.2 86.4 0 166.4 25.6 233.6 64l144-48c28.8-9.6 44.8 6.4 35.2 35.2l-48 150.4z" />
<glyph unicode="&#xe907;" glyph-name="help" d="M512.003 848.648c107.019 0 207.624-41.678 283.285-117.363 75.681-75.675 117.361-176.281 117.361-283.287 0-107.022-41.678-207.626-117.363-283.287-75.673-75.68-176.279-117.359-283.282-117.359-107.026 0-207.631 41.678-283.292 117.361-75.68 75.677-117.359 176.283-117.359 283.285 0 107.018 41.678 207.625 117.361 283.289 75.677 75.682 176.285 117.361 283.289 117.361zM512.003 895.72c-119.597 0-232.014-46.583-316.576-131.149-84.562-84.541-131.147-196.975-131.147-316.573 0-119.595 46.585-232.013 131.147-316.57 84.562-84.588 196.998-131.147 316.576-131.147 119.575 0 232.010 46.582 316.568 131.147 84.569 84.54 131.149 196.975 131.149 316.57 0 119.598-46.581 232.013-131.149 316.573-84.559 84.585-196.973 131.149-316.568 131.149v0zM635.508 667.417c-29.628 26.409-68.285 39.635-115.996 39.635-54.131 0-96.896-15.895-128.331-47.707-31.429-31.814-47.137-75.156-47.137-130.049h0.060c0.83-17.228 15.058-30.942 32.492-30.942s31.663 13.713 32.494 30.942h0.021c0 0.413 0.007 0.82 0.009 1.231 0.001 0.12 0.009 0.238 0.009 0.36 0 0.069-0.005 0.138-0.005 0.207 0.519 81.389 36.264 122.103 107.314 122.103 27.443 0 50.082-7.968 67.906-23.866s26.746-36.285 26.746-61.164c0-28.969-16.53-58.348-49.639-88.103l-24.627-21.936c-24.115-21.533-39.591-40.268-46.372-56.164-6.781-15.915-10.169-41.565-10.169-76.958l0.008-0.081c-0.081-0.901-0.129-1.81-0.129-2.731 0-16.733 13.564-30.294 30.294-30.294 15.964 0 29.031 12.345 30.2 28.010l0.074 0.089 0.335 11.158c0 36.428 17.292 68.73 51.921 96.957 57.989 47.432 86.963 92.851 86.963 136.194 0.002 42.324-14.81 76.679-44.442 103.107zM471.067 216.903c0-22.606 18.326-40.932 40.932-40.932s40.932 18.326 40.932 40.932c0 22.606-18.326 40.932-40.932 40.932s-40.932-18.326-40.932-40.932z" />
<glyph unicode="&#xe908;" glyph-name="help-l" d="M511.776 868.061c-231.771 0-419.658-187.887-419.658-419.657s187.887-419.657 419.658-419.657 419.657 187.887 419.657 419.657-187.886 419.657-419.657 419.657zM548.965 180.641h-73.35v73.351h73.35v-73.351zM664.227 505.477c-10.477-15.718-31.435-41.912-62.869-68.11-20.958-20.957-36.675-31.435-41.916-41.916-5.24-5.24-5.24-15.717-10.478-31.435-5.24-15.717-5.24-31.434-5.24-57.633h-62.873v20.958c0 26.194 5.24 47.152 10.481 68.109 5.236 15.718 10.477 26.199 26.195 41.916 5.24 10.477 20.957 26.199 41.916 41.916 26.198 20.958 36.675 36.675 47.156 47.152 5.236 15.718 10.477 26.199 10.477 41.916 0 26.199-10.477 47.152-31.435 68.11-20.957 15.717-47.156 26.198-73.35 26.198-26.199 0-47.156-10.481-68.114-26.198-20.957-15.718-31.435-41.912-36.675-78.587l-62.869 10.477c5.236 47.152 26.194 83.827 52.392 110.026 26.195 26.198 68.11 36.675 115.266 36.675 52.392 0 94.308-15.718 120.501-47.153 31.435-26.198 47.156-57.633 47.156-99.548 0-20.957-5.24-47.156-15.721-62.873z" />
<glyph unicode="&#xe909;" glyph-name="help-s" d="M507.5 786.25c-196.25-2.5-353.75-163.75-350-360 2.5-196.25 163.75-352.5 360-350 195 1.25 352.5 162.5 350 358.75s-163.75 353.75-360 351.25v0zM512.5 177.5h-2.5c-28.75 1.25-50 22.5-48.75 52.5 1.25 28.75 22.5 50 50 50h1.25c30-1.25 50-22.5 50-52.5s-21.25-50-50-50v0zM642.5 441.25c-7.5-11.25-25-23.75-46.25-40l-23.75-16.25c-12.5-10-21.25-18.75-23.75-28.75-2.5-7.5-3.75-8.75-3.75-23.75v-3.75h-90v7.5c1.25 31.25 2.5 48.75 15 63.75 20 23.75 65 51.25 66.25 52.5 6.25 5 11.25 10 16.25 16.25 10 12.5 13.75 22.5 13.75 32.5 0 13.75-3.75 26.25-12.5 37.5-7.5 11.25-22.5 16.25-43.75 16.25s-36.25-6.25-45-20c-8.75-13.75-13.75-28.75-13.75-43.75v-3.75h-92.5v3.75c2.5 56.25 22.5 96.25 60 118.75 23.75 15 52.5 22.5 86.25 22.5 45 0 82.5-11.25 112.5-31.25 30-21.25 45-53.75 45-95 1.25-22.5-6.25-45-20-65v0z" />
<glyph unicode="&#xe90a;" glyph-name="save" d="M940.019 540.79c-7.346 22.967-26.78 39.425-50.196 42.905l-222.491 39.096-99.401 199.908c-10.381 21.482-32.585 35.344-56.491 35.344-24.023 0-45.729-13.473-56.551-35.178l-99.453-200.184-221.883-40.256c-23.966-3.589-43.408-20.156-50.64-42.907-7.455-22.584-1.216-47.984 16.347-65.111l159.865-147.66-41.913-215.261c-3.978-23.635 5.906-47.877 25.071-61.516 18.996-13.864 46.167-15.686 65.825-5.301l203.276 99.398 201.506-99.183c9.114-4.695 19.211-7.175 29.268-7.175v-0.003c13.143 0 26.339 4.362 36.891 12.032 19.492 14.029 29.38 38.275 25.235 62.133l-40.531 214.871 160.362 149.541c17.057 16.626 23.301 42.032 15.901 64.505v0zM904.385 510.034l-182.843-170.519 46.28-245.195c1.244-7.211-1.816-14.587-7.899-19.025-5.906-4.253-13.455-5.103-20.89-1.184l-227.593 111.976-229.514-112.324c-6.416-3.404-14.42-2.892-20.614 1.654-5.849 4.2-8.858 11.639-7.725 18.393l47.814 245.651-182.507 168.59c-5.223 5.169-7.211 12.889-4.825 19.988 2.215 7.038 8.177 12.149 16.242 13.341l251.266 45.652 112.372 226.171c6.704 13.463 28.223 13.519 34.754 0.063l112.545-226.345 251.895-44.18c7.439-1.079 13.403-6.133 15.731-13.343 2.268-6.928 0.342-14.648-4.487-19.364v0zM511.438 193.273v0z" />
<glyph unicode="&#xe90b;" glyph-name="score1" d="M843.871 498.433l-305.32 447.449c-6.024 8.842-16.097 14.118-26.844 14.118-10.782 0-20.845-5.31-26.834-14.118l-305.495-448.563c-36.552-57.542-55.877-123.676-55.877-191.241 0-204.064 174.275-370.078 388.504-370.078 214.216 0 388.495 166.018 388.495 370.049 0 67.65-19.389 133.889-56.629 192.384v0zM519.772 106.664c-107.284 0-194.25 41.68-194.25 93.093 0 10.899 4.108 21.314 11.289 31.030 26.693-36.135 98.418-62.061 182.96-62.061 84.539 0 156.262 25.926 182.96 62.061 7.176-9.72 11.289-20.131 11.289-31.030 0.001-51.413-86.97-93.093-194.25-93.093v0zM519.772 199.758c-107.284 0-194.25 41.68-194.25 93.092 0 10.894 4.108 21.314 11.289 31.031 26.693-36.133 98.418-62.061 182.96-62.061 84.539 0 156.262 25.929 182.96 62.061 7.176-9.722 11.289-20.139 11.289-31.031 0.001-51.411-86.97-93.092-194.25-93.092v0zM519.772 292.849c-107.284 0-194.25 41.675-194.25 93.089s86.966 93.092 194.25 93.092c107.278 0 194.25-41.675 194.25-93.092 0.001-51.414-86.97-93.089-194.25-93.089v0z" />
<glyph unicode="&#xe90c;" glyph-name="score2" d="M512-32c-192 0-352 160-352 352 0 185.6 147.2 544 352 544s352-358.4 352-544c0-192-160-352-352-352zM512 800c-147.2 0-288-300.8-288-480 0-160 128-288 288-288s288 128 288 288c0 179.2-140.8 480-288 480z" />
<glyph unicode="&#xe90d;" glyph-name="score3" d="M643.722-32c-120.288 0-228.165 0-263.476 0-265.132 0-319.959 86.873-294.85 291.946s262.708 308.005 262.708 308.005h327.785c0 0 237.575-102.956 262.708-308.005 25.109-205.073-29.718-291.946-294.875-291.946zM511.984 99.017c71.174 0 128.858 38.695 129.505 86.561-26.381-25.565-74.223-42.873-129.505-42.873s-103.124 17.307-129.505 42.873c0.648-47.866 58.331-86.561 129.505-86.561zM511.984 164.527c71.174 0 128.858 38.695 129.505 86.561-26.381-25.565-74.223-42.873-129.505-42.873s-103.124 17.307-129.505 42.873c0.648-47.866 58.331-86.561 129.505-86.561zM511.984 230.036c71.174 0 128.858 38.695 129.505 86.561-26.381-25.565-74.223-42.873-129.505-42.873s-103.124 17.307-129.505 42.873c0.648-47.866 58.331-86.561 129.505-86.561zM511.984 470.275c-71.582 0-129.625-39.104-129.625-87.353s58.043-87.353 129.625-87.353c71.582 0 129.625 39.104 129.625 87.353 0 48.226-58.043 87.353-129.625 87.353zM680.018 640.133c13.251 0 24.005-10.754 24.005-24.005s-10.754-24.005-24.005-24.005h-336.067c-13.251 0-24.005 10.754-24.005 24.005s10.754 24.005 24.005 24.005h336.067zM756.641 799.405c-47.194-35.359-76.623-135.267-76.623-135.267h-336.067c0 0-201.112 159.512-114.263 186.061s181.932-76.167 181.932-76.167 249.121 195.375 357.599 145.973c39.752-18.124 30.702-88.169-12.578-120.6z" />
<glyph unicode="&#xe90e;" glyph-name="search" horiz-adv-x="1025" d="M454.237 557.935c209.214 0 378.747 75.427 378.747 168.578 0 93.146-169.533 168.574-378.747 168.574-209.216 0-378.75-75.428-378.75-168.574 0-93.151 169.534-168.578 378.75-168.578v0zM454.237 382.791c5.562 0 10.974 0.267 16.476 0.368 35.793 77.266 113.82 130.984 204.576 130.984 44.414 0 85.705-13.016 120.616-35.179 23.526 21.954 37.078 46.439 37.078 72.398v128.9c0-93.15-169.533-168.578-378.747-168.578-209.213 0-378.75 75.427-378.75 168.578v-128.9c0.001-93.144 169.535-168.572 378.751-168.572v0zM454.237 207.649c3.583 0 7.057 0.191 10.613 0.234-9.63 25.088-15.127 52.223-15.127 80.698 0 16.482 1.872 32.507 5.225 47.978-0.244 0-0.472-0.016-0.711-0.016-209.216 0-378.75 75.43-378.75 168.573v-128.893c-0.001-93.147 169.533-168.574 378.749-168.574v0zM612.636 72.187c-51.186 14.756-94.977 46.92-124.173 89.983-11.294-0.451-22.675-0.769-34.227-0.769-209.216 0-378.75 75.423-378.75 168.574v-128.896c0-93.149 169.534-168.58 378.75-168.58 58.469 0 113.548 6.116 162.94 16.667-3.094 6.338-4.831 13.27-4.831 20.553 0 0.847 0.248 1.631 0.292 2.468v0zM940.091 70.995l-117.444 117.44c-1.105 1.104-2.287 2.082-3.528 2.968 18.874 28.805 29.87 63.215 29.87 100.157 0 101.030-82.196 183.231-183.234 183.231-101.036 0-183.235-82.201-183.235-183.231 0-101.037 82.198-183.238 183.235-183.238 33.057 0 64.096 8.805 90.903 24.18 1.186-2.053 2.641-3.965 4.365-5.695l117.445-117.442c13.438-13.438 38.131-10.539 55.149 6.474 17.015 17.021 19.914 41.713 6.474 55.156v0zM533.593 291.56c0 72.874 59.291 132.157 132.164 132.157 72.875 0 132.163-59.283 132.163-132.157s-59.289-132.165-132.163-132.165c-72.875-0.001-132.164 59.292-132.164 132.165v0z" />
<glyph unicode="&#xe90f;" glyph-name="task" d="M529.655 862.897c0 24.717 19.421 44.138 44.138 44.138h370.759c24.717 0 44.138-19.421 44.138-44.138s-19.421-44.138-44.138-44.138h-370.759c-24.717 0-44.138 19.421-44.138 44.138zM529.655 668.69c0 24.717 19.421 44.138 44.138 44.138h264.828c24.717 0 44.138-19.421 44.138-44.138s-19.421-44.138-44.138-44.138h-264.828c-24.717 0-44.138 19.421-44.138 44.138zM529.655 368.552c0 24.717 19.421 44.138 44.138 44.138h370.759c24.717 0 44.138-19.421 44.138-44.138s-19.421-44.138-44.138-44.138h-370.759c-24.717 0-44.138 19.421-44.138 44.138zM529.655 174.345c0 24.717 19.421 44.138 44.138 44.138h264.828c24.717 0 44.138-19.421 44.138-44.138s-19.421-44.138-44.138-44.138h-264.828c-24.717 0-44.138 19.421-44.138 44.138zM35.31 836.414c0 49.434 38.841 88.276 88.276 88.276h264.828c49.434 0 88.276-38.841 88.276-88.276v-264.828c0-49.434-38.841-88.276-88.276-88.276h-264.828c-49.434 0-88.276 38.841-88.276 88.276v264.828zM35.31 324.414c0 58.262 47.669 105.931 105.931 105.931h229.517c58.262 0 105.931-47.669 105.931-105.931v-229.517c0-58.262-47.669-105.931-105.931-105.931h-229.517c-58.262 0-105.931 47.669-105.931 105.931v229.517zM195.972 756.966c-8.828 10.593-26.483 12.359-37.076 3.531s-12.359-26.483-3.531-37.076l52.966-61.793c8.828-10.593 26.483-12.359 37.076-3.531l123.586 105.931c10.593 8.828 12.359 26.483 3.531 37.076s-26.483 12.359-37.076 3.531l-104.166-88.276-35.31 40.607z" />
<glyph unicode="&#xe910;" glyph-name="toggle" d="M173.338 649.703h679.004c24.283 0 44.033 21.86 44.033 48.734s-19.751 48.734-44.033 48.734h-679.004c-24.274 0-44.024-21.86-44.024-48.734s19.75-48.734 44.024-48.734zM852.34 496.734h-679.003c-24.274 0-44.024-21.86-44.024-48.734s19.751-48.734 44.024-48.734h679.004c24.283 0 44.033 21.868 44.033 48.734s-19.758 48.734-44.034 48.734zM852.34 246.297h-679.003c-24.274 0-44.024-21.868-44.024-48.734s19.751-48.734 44.024-48.734h679.004c24.283 0 44.033 21.86 44.033 48.734s-19.758 48.734-44.034 48.734z" />
<glyph unicode="&#xe911;" glyph-name="top" d="M198.558 595.679c4.898-5.001 12.837-5.001 17.735 0l249.806 255.121v-599.689c0-6.887 5.581-12.469 12.469-12.469h25.221c6.887 0 12.469 5.582 12.469 12.469v599.689l249.806-255.121c4.898-5.001 12.836-5.001 17.735 0l17.735 18.113c4.898 5.001 4.898 13.109 0 18.11l-301.486 307.902c-4.898 5.001-12.837 5.001-17.735 0l-301.488-307.901c-4.897-5.001-4.897-13.109 0-18.11l17.735-18.114zM957.751 344.251v-282.151c0-41.722-33.939-75.66-75.66-75.66h-756.605c-41.723 0-75.66 33.937-75.66 75.66v282.151h-50.44v-282.151c0-69.526 56.574-126.099 126.1-126.099h756.605c69.527 0 126.1 56.574 126.1 126.099v282.151h-50.44z" />
<glyph unicode="&#xe912;" glyph-name="up-arrow" d="M512 601.601l286.72-287.805-19.313-19.395-267.407 268.39-267.407-268.39-19.313 19.395 286.72 287.805z" />
<glyph unicode="&#xe913;" glyph-name="user" d="M512 960c-282.768 0-512-229.232-512-512s229.232-512 512-512 512 229.232 512 512-229.232 512-512 512zM512 912c256.256 0 464-207.744 464-464 0-114.256-41.376-218.8-109.872-299.664-58.032 138.4-194.672 235.664-354.128 235.664-159.504 0-295.936-97.44-353.936-235.904-68.608 80.896-110.064 185.536-110.064 299.904 0 256.256 207.744 464 464 464zM194.896 109.424c45.52 131.6 170.224 226.576 317.104 226.576s271.632-94.944 317.152-226.528c-82.976-77.776-194.464-125.472-317.152-125.472-122.672 0-234.144 47.68-317.104 125.424zM512 413.744c106.032 0 192 85.968 192 192s-85.968 192-192 192-192-85.968-192-192 85.968-192 192-192zM512 749.744c79.392 0 144-64.608 144-144s-64.608-144-144-144-144 64.608-144 144 64.608 144 144 144z" />
</font>
</defs>
</svg>
